<svg xmlns="http://www.w3.org/2000/svg" xmlns:xlink="http://www.w3.org/1999/xlink" width="1080" zoomAndPan="magnify" viewBox="0 0 810 809.999993" height="1080" preserveAspectRatio="xMidYMid meet" version="1.0"><path fill="#016fb9" d="M 238.167969 0 C 107.433594 0 0 107.289062 0 238.167969 L 0 571.832031 C 0 702.566406 107.289062 810 238.167969 810 L 571.832031 810 C 702.566406 810 810 702.710938 810 571.832031 L 810 238.167969 C 810 107.433594 702.710938 0 571.832031 0 Z M 238.167969 73.636719 L 571.832031 73.636719 C 662.871094 73.636719 736.363281 147.128906 736.363281 238.167969 L 736.363281 571.832031 C 736.363281 662.871094 662.871094 736.363281 571.832031 736.363281 L 238.167969 736.363281 C 147.128906 736.363281 73.636719 662.871094 73.636719 571.832031 L 73.636719 238.167969 C 73.636719 147.128906 147.128906 73.636719 238.167969 73.636719 Z M 622.457031 154.175781 C 603.90625 154.175781 589.089844 168.988281 589.089844 187.542969 C 589.089844 206.09375 603.90625 220.910156 622.457031 220.910156 C 641.011719 220.910156 655.824219 206.09375 655.824219 187.542969 C 655.824219 168.988281 641.011719 154.175781 622.457031 154.175781 Z M 405 184.089844 C 283.472656 184.089844 184.089844 283.472656 184.089844 405 C 184.089844 526.527344 283.472656 625.910156 405 625.910156 C 526.527344 625.910156 625.910156 526.527344 625.910156 405 C 625.910156 283.472656 526.527344 184.089844 405 184.089844 Z M 405 257.726562 C 486.835938 257.726562 552.273438 323.164062 552.273438 405 C 552.273438 486.835938 486.835938 552.273438 405 552.273438 C 323.164062 552.273438 257.726562 486.835938 257.726562 405 C 257.726562 323.164062 323.164062 257.726562 405 257.726562 Z M 405 257.726562 " fill-opacity="1" fill-rule="nonzero"/></svg>