<svg xmlns="http://www.w3.org/2000/svg" xmlns:xlink="http://www.w3.org/1999/xlink" width="1080" zoomAndPan="magnify" viewBox="0 0 810 809.999993" height="1080" preserveAspectRatio="xMidYMid meet" version="1.0"><path fill="#016fb9" d="M 742.332031 0 L 68.074219 0 C 30.796875 0 0.808594 30.390625 0.808594 67.261719 L 0.808594 742.738281 C 0.808594 780.015625 31.199219 810 68.074219 810 L 741.925781 810 C 779.203125 810 809.191406 779.609375 809.191406 742.738281 L 809.191406 67.265625 C 809.59375 30.390625 779.609375 0 742.332031 0 Z M 240.285156 668.179688 L 120.75 668.179688 L 120.75 309.167969 L 240.285156 309.167969 Z M 180.316406 265.8125 C 142.632812 265.8125 112.242188 235.421875 112.242188 197.738281 C 112.242188 160.054688 142.632812 129.664062 180.316406 129.664062 C 218 129.664062 248.390625 160.054688 248.390625 197.738281 C 248.390625 235.421875 218 265.8125 180.316406 265.8125 Z M 690.058594 668.179688 L 570.121094 668.179688 L 567.285156 455.042969 C 567.285156 455.042969 570.121094 398.3125 508.125 398.71875 C 446.128906 399.125 437.617188 455.042969 437.617188 455.042969 L 437.617188 668.179688 L 316.867188 668.179688 L 316.867188 309.167969 L 432.757812 309.167969 L 432.757812 358.605469 C 432.757812 358.605469 437.617188 342.394531 464.363281 323.351562 C 491.105469 304.308594 535.273438 300.253906 554.316406 301.066406 C 573.363281 301.875 599.292969 298.632812 642.652344 328.621094 C 689.25 360.628906 690.464844 444.507812 690.464844 444.507812 Z M 690.058594 668.179688 " fill-opacity="1" fill-rule="nonzero"/></svg>