<svg xmlns="http://www.w3.org/2000/svg" xmlns:xlink="http://www.w3.org/1999/xlink" width="1080" zoomAndPan="magnify" viewBox="0 0 810 809.999993" height="1080" preserveAspectRatio="xMidYMid meet" version="1.0"><path fill="#016fb9" d="M 355.6875 37.019531 C 183.5625 56.097656 43.300781 194.988281 22.53125 366.847656 C 21.859375 372.242188 21.304688 377.648438 20.863281 383.066406 C 20.421875 388.488281 20.101562 393.914062 19.894531 399.34375 C 19.6875 404.777344 19.59375 410.210938 19.621094 415.648438 C 19.644531 421.085938 19.789062 426.519531 20.046875 431.949219 C 20.304688 437.382812 20.679688 442.804688 21.171875 448.21875 C 21.664062 453.632812 22.269531 459.035156 22.992188 464.421875 C 23.714844 469.8125 24.550781 475.183594 25.503906 480.535156 C 26.457031 485.886719 27.523438 491.21875 28.703125 496.523438 C 29.886719 501.832031 31.179688 507.109375 32.585938 512.363281 C 33.996094 517.613281 35.511719 522.832031 37.144531 528.019531 C 38.773438 533.207031 40.515625 538.355469 42.367188 543.46875 C 44.21875 548.578125 46.179688 553.648438 48.25 558.675781 C 50.316406 563.703125 52.492188 568.683594 54.777344 573.621094 C 57.058594 578.554688 59.445312 583.4375 61.9375 588.269531 C 64.429688 593.101562 67.023438 597.878906 69.71875 602.601562 C 72.414062 607.320312 75.210938 611.980469 78.109375 616.582031 C 81.003906 621.183594 83.996094 625.722656 87.085938 630.195312 C 90.179688 634.667969 93.363281 639.074219 96.640625 643.410156 C 99.921875 647.746094 103.292969 652.007812 106.753906 656.203125 C 110.214844 660.394531 113.765625 664.507812 117.40625 668.550781 C 121.042969 672.589844 124.765625 676.550781 128.574219 680.429688 C 132.382812 684.308594 136.273438 688.105469 140.242188 691.820312 C 144.214844 695.535156 148.261719 699.160156 152.390625 702.699219 C 156.515625 706.242188 160.714844 709.691406 164.992188 713.050781 C 169.265625 716.410156 173.609375 719.679688 178.023438 722.851562 C 182.4375 726.027344 186.917969 729.105469 191.464844 732.085938 C 196.011719 735.066406 200.617188 737.949219 205.289062 740.734375 C 209.957031 743.519531 214.683594 746.203125 219.46875 748.785156 C 224.253906 751.367188 229.089844 753.84375 233.984375 756.21875 C 238.875 758.59375 243.8125 760.863281 248.800781 763.023438 C 253.789062 765.1875 258.820312 767.242188 263.898438 769.191406 C 268.972656 771.136719 274.089844 772.972656 279.242188 774.703125 C 298.242188 777.738281 304.3125 765.96875 304.3125 755.730469 L 304.3125 691.566406 C 199.171875 714.40625 176.789062 640.730469 176.789062 640.730469 C 159.378906 596.691406 134.65625 584.921875 134.65625 584.921875 C 100.101562 561.382812 137.34375 562.164062 137.34375 562.164062 C 175.285156 564.847656 195.410156 601.257812 195.410156 601.257812 C 228.433594 658.949219 284.214844 641.859375 305.84375 632.75 C 309.257812 608.082031 319.28125 591.371094 329.757812 581.886719 C 245.359375 572.398438 157.039062 539.753906 157.039062 395.167969 C 157.039062 353.035156 171.46875 319.257812 196.136719 292.308594 C 192.347656 282.824219 179.046875 243.351562 199.925781 192.113281 C 199.925781 192.113281 231.820312 181.847656 304.3125 230.832031 C 319.78125 226.667969 335.457031 223.535156 351.339844 221.433594 C 367.21875 219.332031 383.171875 218.28125 399.191406 218.28125 C 415.210938 218.28125 431.160156 219.332031 447.042969 221.433594 C 462.925781 223.535156 478.597656 226.667969 494.066406 230.832031 C 566.617188 181.847656 598.457031 192.113281 598.457031 192.113281 C 619.308594 243.351562 606.035156 282.824219 602.246094 292.308594 C 626.910156 319.179688 641.339844 353.035156 641.339844 395.167969 C 641.339844 540.128906 552.507812 572.023438 467.898438 581.507812 C 481.546875 593.277344 494.066406 616.4375 494.066406 651.71875 L 494.066406 755.730469 C 494.066406 765.96875 500.140625 778.113281 519.511719 774.703125 C 525.015625 772.859375 530.472656 770.890625 535.882812 768.796875 C 541.296875 766.703125 546.65625 764.488281 551.96875 762.148438 C 557.277344 759.808594 562.53125 757.347656 567.726562 754.769531 C 572.925781 752.1875 578.0625 749.492188 583.136719 746.675781 C 588.207031 743.859375 593.214844 740.929688 598.15625 737.882812 C 603.09375 734.839844 607.960938 731.683594 612.757812 728.414062 C 617.550781 725.148438 622.269531 721.773438 626.910156 718.289062 C 631.550781 714.804688 636.109375 711.214844 640.585938 707.523438 C 645.058594 703.832031 649.449219 700.035156 653.75 696.144531 C 658.054688 692.25 662.261719 688.257812 666.382812 684.171875 C 670.5 680.085938 674.523438 675.90625 678.453125 671.636719 C 682.378906 667.363281 686.207031 663.003906 689.9375 658.558594 C 693.664062 654.113281 697.289062 649.582031 700.808594 644.96875 C 704.328125 640.355469 707.742188 635.664062 711.046875 630.898438 C 714.351562 626.128906 717.546875 621.285156 720.632812 616.371094 C 723.714844 611.453125 726.683594 606.472656 729.539062 601.417969 C 732.394531 596.367188 735.132812 591.253906 737.753906 586.078125 C 740.375 580.898438 742.875 575.667969 745.257812 570.375 C 747.636719 565.082031 749.898438 559.738281 752.035156 554.34375 C 754.167969 548.949219 756.179688 543.507812 758.070312 538.019531 C 759.957031 532.535156 761.714844 527.007812 763.347656 521.4375 C 764.984375 515.871094 766.488281 510.269531 767.867188 504.632812 C 769.242188 498.996094 770.488281 493.328125 771.605469 487.636719 C 772.722656 481.941406 773.710938 476.226562 774.566406 470.484375 C 775.421875 464.746094 776.144531 458.992188 776.738281 453.21875 C 777.328125 447.445312 777.789062 441.664062 778.113281 435.871094 C 778.441406 430.078125 778.636719 424.277344 778.695312 418.476562 C 778.757812 412.675781 778.6875 406.875 778.480469 401.074219 C 778.277344 395.277344 777.9375 389.484375 777.46875 383.699219 C 777 377.917969 776.398438 372.148438 775.664062 366.390625 C 774.929688 360.636719 774.0625 354.898438 773.066406 349.183594 C 772.066406 343.46875 770.941406 337.777344 769.683594 332.113281 C 768.425781 326.449219 767.035156 320.816406 765.519531 315.214844 C 764.003906 309.613281 762.359375 304.050781 760.589844 298.523438 C 758.820312 293 756.921875 287.515625 754.898438 282.078125 C 752.878906 276.636719 750.734375 271.25 748.464844 265.90625 C 746.195312 260.566406 743.804688 255.28125 741.292969 250.050781 C 738.78125 244.820312 736.152344 239.648438 733.402344 234.539062 C 730.65625 229.429688 727.789062 224.382812 724.8125 219.402344 C 721.832031 214.425781 718.738281 209.515625 715.535156 204.679688 C 712.332031 199.839844 709.019531 195.078125 705.59375 190.394531 C 702.171875 185.707031 698.644531 181.101562 695.011719 176.578125 C 691.378906 172.054688 687.640625 167.617188 683.804688 163.261719 C 679.96875 158.910156 676.035156 154.648438 672 150.476562 C 667.96875 146.300781 663.84375 142.222656 659.625 138.242188 C 655.40625 134.257812 651.097656 130.371094 646.699219 126.585938 C 642.304688 122.800781 637.820312 119.117188 633.257812 115.535156 C 628.691406 111.953125 624.042969 108.480469 619.320312 105.113281 C 614.59375 101.742188 609.796875 98.484375 604.921875 95.335938 C 600.046875 92.191406 595.101562 89.15625 590.089844 86.234375 C 585.074219 83.3125 579.996094 80.507812 574.855469 77.816406 C 569.714844 75.128906 564.511719 72.558594 559.253906 70.109375 C 553.992188 67.65625 548.679688 65.328125 543.3125 63.121094 C 537.949219 60.914062 532.535156 58.832031 527.070312 56.871094 C 521.609375 54.914062 516.105469 53.082031 510.558594 51.375 C 505.015625 49.667969 499.433594 48.085938 493.8125 46.636719 C 488.195312 45.183594 482.546875 43.863281 476.867188 42.671875 C 471.191406 41.480469 465.488281 40.417969 459.757812 39.488281 C 454.03125 38.554688 448.285156 37.757812 442.523438 37.089844 C 436.757812 36.421875 430.980469 35.886719 425.191406 35.480469 C 419.40625 35.078125 413.609375 34.808594 407.808594 34.671875 C 402.007812 34.535156 396.207031 34.53125 390.40625 34.65625 C 384.605469 34.785156 378.808594 35.046875 373.019531 35.441406 C 367.230469 35.835938 361.453125 36.359375 355.6875 37.019531 Z M 355.6875 37.019531 " fill-opacity="1" fill-rule="nonzero"/></svg>